<svg width="45" height="20" viewBox="0 0 45 20" fill="none" xmlns="http://www.w3.org/2000/svg">
    <path
        d="M0.761364 15V0.454545H5.67614C6.8125 0.454545 7.74527 0.648674 8.47443 1.03693C9.2036 1.42045 9.74337 1.94839 10.0938 2.62074C10.4441 3.29309 10.6193 4.05777 10.6193 4.91477C10.6193 5.77178 10.4441 6.53172 10.0938 7.1946C9.74337 7.85748 9.20597 8.37831 8.48153 8.7571C7.7571 9.13116 6.83144 9.31818 5.70455 9.31818H1.72727V7.72727H5.64773C6.42424 7.72727 7.04924 7.61364 7.52273 7.38636C8.00095 7.15909 8.34659 6.83712 8.55966 6.42045C8.77746 5.99905 8.88636 5.49716 8.88636 4.91477C8.88636 4.33239 8.77746 3.82339 8.55966 3.38778C8.34186 2.95218 7.99384 2.616 7.51562 2.37926C7.03741 2.13778 6.4053 2.01705 5.61932 2.01705H2.52273V15H0.761364ZM7.60795 8.46591L11.1875 15H9.14205L5.61932 8.46591H7.60795ZM17.7837 15.2273C16.7326 15.2273 15.8259 14.9953 15.0636 14.5312C14.306 14.0625 13.7212 13.4091 13.3093 12.571C12.9021 11.7282 12.6985 10.7481 12.6985 9.63068C12.6985 8.51326 12.9021 7.52841 13.3093 6.67614C13.7212 5.81913 14.2942 5.15152 15.0281 4.6733C15.7667 4.19034 16.6284 3.94886 17.6133 3.94886C18.1815 3.94886 18.7425 4.04356 19.2965 4.23295C19.8505 4.42235 20.3548 4.73011 20.8093 5.15625C21.2638 5.57765 21.6261 6.13636 21.896 6.83239C22.1658 7.52841 22.3008 8.38542 22.3008 9.40341V10.1136H13.8917V8.66477H20.5962C20.5962 8.04924 20.4731 7.5 20.2269 7.01705C19.9854 6.53409 19.6398 6.15294 19.19 5.87358C18.7449 5.59422 18.2193 5.45455 17.6133 5.45455C16.9457 5.45455 16.368 5.62026 15.8803 5.9517C15.3974 6.27841 15.0257 6.70455 14.7653 7.23011C14.5049 7.75568 14.3746 8.31913 14.3746 8.92045V9.88636C14.3746 10.7102 14.5167 11.4086 14.8008 11.9815C15.0896 12.5497 15.4897 12.983 16.0011 13.2812C16.5124 13.5748 17.1067 13.7216 17.7837 13.7216C18.2241 13.7216 18.6218 13.66 18.9769 13.5369C19.3368 13.4091 19.6469 13.2197 19.9073 12.9688C20.1677 12.7131 20.369 12.3958 20.511 12.017L22.1303 12.4716C21.9599 13.0208 21.6734 13.5038 21.271 13.9205C20.8685 14.3324 20.3713 14.6544 19.7795 14.8864C19.1876 15.1136 18.5224 15.2273 17.7837 15.2273ZM29.2539 19.3182C28.4442 19.3182 27.7482 19.214 27.1658 19.0057C26.5835 18.8021 26.0981 18.5322 25.7099 18.196C25.3263 17.8646 25.021 17.5095 24.7937 17.1307L26.1289 16.1932C26.2804 16.392 26.4722 16.6193 26.7042 16.875C26.9362 17.1354 27.2534 17.3603 27.6559 17.5497C28.0631 17.7438 28.5958 17.8409 29.2539 17.8409C30.1346 17.8409 30.8614 17.6278 31.4343 17.2017C32.0072 16.7756 32.2937 16.108 32.2937 15.1989V12.983H32.1516C32.0285 13.1818 31.8533 13.428 31.6261 13.7216C31.4035 14.0104 31.0816 14.2685 30.6602 14.4957C30.2435 14.7183 29.68 14.8295 28.9698 14.8295C28.0891 14.8295 27.2984 14.6212 26.5977 14.2045C25.9016 13.7879 25.35 13.1818 24.9428 12.3864C24.5404 11.5909 24.3391 10.625 24.3391 9.48864C24.3391 8.37121 24.5356 7.3982 24.9286 6.5696C25.3216 5.73627 25.8685 5.09233 26.5692 4.63778C27.27 4.1785 28.0797 3.94886 28.9982 3.94886C29.7085 3.94886 30.2719 4.06723 30.6886 4.30398C31.11 4.53598 31.4319 4.80114 31.6545 5.09943C31.8817 5.39299 32.0569 5.63447 32.18 5.82386H32.3505V4.09091H33.9698V15.3125C33.9698 16.25 33.7567 17.0123 33.3306 17.5994C32.9092 18.1913 32.341 18.6245 31.6261 18.8991C30.9158 19.1785 30.1251 19.3182 29.2539 19.3182ZM29.1971 13.3239C29.8694 13.3239 30.4376 13.17 30.9016 12.8622C31.3656 12.5545 31.7184 12.1117 31.9599 11.5341C32.2013 10.9564 32.3221 10.2652 32.3221 9.46023C32.3221 8.67424 32.2037 7.98059 31.967 7.37926C31.7302 6.77794 31.3799 6.30682 30.9158 5.96591C30.4518 5.625 29.8789 5.45455 29.1971 5.45455C28.4869 5.45455 27.895 5.63447 27.4215 5.99432C26.9528 6.35417 26.6 6.83712 26.3633 7.44318C26.1313 8.04924 26.0153 8.72159 26.0153 9.46023C26.0153 10.2178 26.1336 10.8878 26.3704 11.4702C26.6119 12.0478 26.967 12.5024 27.4357 12.8338C27.9092 13.1605 28.4963 13.3239 29.1971 13.3239ZM39.8221 8.63636L39.9357 5.51136L37.2937 7.1875L36.6119 5.99432L39.396 4.54545L36.6119 3.09659L37.2937 1.90341L39.9357 3.57955L39.8221 0.454545H41.1857L41.0721 3.57955L43.7141 1.90341L44.396 3.09659L41.6119 4.54545L44.396 5.99432L43.7141 7.1875L41.0721 5.51136L41.1857 8.63636H39.8221Z"
        fill="#333333"
    />
</svg>